%FSLAX45Y45*%
G04 Gerber Fmt 4.5, Leading zero omitted, Abs format (unit mm)*
G04 Created by KiCad (PCBNEW (5.1.5)-3) date 2020-11-27 02:05:23*
%MOMM*%
%LPD*%
G04 APERTURE LIST*
%TA.AperFunction,Profile*%
%ADD10C,0.150000*%
%TD*%
%ADD11C,0.200000*%
%ADD12C,0.300000*%
G04 APERTURE END LIST*
D10*
X22952540Y-5163820D02*
X22952540Y-8763820D01*
X18752540Y-5163820D02*
X18752540Y-8763820D01*
X22652540Y-9063820D02*
X22452540Y-9063820D01*
X22652540Y-9063820D02*
G75*
G03X22952540Y-8763820I0J300000D01*
G01*
X22452540Y-9063820D02*
G75*
G03X22352540Y-8963820I-100000J0D01*
G01*
X18752540Y-8763820D02*
G75*
G03X19052540Y-9063820I300000J0D01*
G01*
X19352366Y-8963820D02*
G75*
G03X19252540Y-9063820I175J-100000D01*
G01*
X22952540Y-5163820D02*
G75*
G03X22652540Y-4863820I-300000J0D01*
G01*
X19352366Y-8963820D02*
X22352540Y-8963820D01*
X19052016Y-4863821D02*
X22652540Y-4863820D01*
X19052016Y-4863821D02*
G75*
G03X18752540Y-5163820I524J-300000D01*
G01*
X19052540Y-9063820D02*
X19252540Y-9063820D01*
D11*
D12*
X19031468Y-9537034D02*
X19031468Y-9237034D01*
X19102897Y-9237034D01*
X19145754Y-9251320D01*
X19174326Y-9279892D01*
X19188611Y-9308463D01*
X19202897Y-9365606D01*
X19202897Y-9408463D01*
X19188611Y-9465606D01*
X19174326Y-9494177D01*
X19145754Y-9522749D01*
X19102897Y-9537034D01*
X19031468Y-9537034D01*
X19331468Y-9537034D02*
X19331468Y-9337034D01*
X19331468Y-9394177D02*
X19345754Y-9365606D01*
X19360040Y-9351320D01*
X19388611Y-9337034D01*
X19417183Y-9337034D01*
X19517183Y-9537034D02*
X19517183Y-9337034D01*
X19517183Y-9237034D02*
X19502897Y-9251320D01*
X19517183Y-9265606D01*
X19531468Y-9251320D01*
X19517183Y-9237034D01*
X19517183Y-9265606D01*
X19702897Y-9537034D02*
X19674326Y-9522749D01*
X19660040Y-9494177D01*
X19660040Y-9237034D01*
X19860040Y-9537034D02*
X19831468Y-9522749D01*
X19817183Y-9494177D01*
X19817183Y-9237034D01*
X20202897Y-9537034D02*
X20202897Y-9237034D01*
X20302897Y-9451320D01*
X20402897Y-9237034D01*
X20402897Y-9537034D01*
X20674326Y-9537034D02*
X20674326Y-9379892D01*
X20660040Y-9351320D01*
X20631468Y-9337034D01*
X20574326Y-9337034D01*
X20545754Y-9351320D01*
X20674326Y-9522749D02*
X20645754Y-9537034D01*
X20574326Y-9537034D01*
X20545754Y-9522749D01*
X20531468Y-9494177D01*
X20531468Y-9465606D01*
X20545754Y-9437034D01*
X20574326Y-9422749D01*
X20645754Y-9422749D01*
X20674326Y-9408463D01*
X20817183Y-9337034D02*
X20817183Y-9637034D01*
X20817183Y-9351320D02*
X20845754Y-9337034D01*
X20902897Y-9337034D01*
X20931468Y-9351320D01*
X20945754Y-9365606D01*
X20960040Y-9394177D01*
X20960040Y-9479892D01*
X20945754Y-9508463D01*
X20931468Y-9522749D01*
X20902897Y-9537034D01*
X20845754Y-9537034D01*
X20817183Y-9522749D01*
X21088611Y-9508463D02*
X21102897Y-9522749D01*
X21088611Y-9537034D01*
X21074326Y-9522749D01*
X21088611Y-9508463D01*
X21088611Y-9537034D01*
X21088611Y-9351320D02*
X21102897Y-9365606D01*
X21088611Y-9379892D01*
X21074326Y-9365606D01*
X21088611Y-9351320D01*
X21088611Y-9379892D01*
M02*
