M48
; DRILL file {KiCad (5.1.5)-3} date 11/27/2020 2:05:18 AM
; FORMAT={-:-/ absolute / inch / decimal}
; #@! TF.CreationDate,2020-11-27T02:05:18-06:00
; #@! TF.GenerationSoftware,Kicad,Pcbnew,(5.1.5)-3
; #@! TF.FileFunction,Plated,1,4,PTH
FMAT,2
INCH
T1C0.0079
T2C0.0157
T3C0.0197
T4C0.0256
T5C0.0315
T6C0.0591
T7C0.0984
%
G90
G05
T1
X8.6012Y-3.035
X8.634Y-3.0022
X8.634Y-3.0678
X8.6668Y-3.035
T2
X7.644Y-2.541
X7.736Y-2.0
X7.736Y-2.148
X7.788Y-2.147
X7.836Y-1.994
X7.836Y-2.1475
X7.871Y-2.663
X7.882Y-3.242
X7.886Y-1.994
X7.886Y-2.1475
X7.897Y-2.512
X7.899Y-2.628
X7.936Y-1.996
X7.936Y-2.1475
X7.986Y-1.994
X7.986Y-2.1475
X8.025Y-2.5
X8.036Y-1.994
X8.036Y-2.1475
X8.052Y-2.535
X8.053Y-2.877
X8.086Y-1.994
X8.086Y-2.1475
X8.108Y-2.671
X8.136Y-1.994
X8.136Y-2.1475
X8.186Y-1.994
X8.186Y-2.1475
X8.196Y-2.907
X8.21Y-2.78
X8.211Y-2.59
X8.236Y-1.994
X8.236Y-2.1475
X8.237Y-2.897
X8.276Y-2.906
X8.286Y-1.994
X8.286Y-2.1475
X8.31Y-2.828
X8.326Y-2.676
X8.336Y-1.994
X8.336Y-2.1475
X8.338Y-2.518
X8.384Y-2.515
X8.386Y-1.994
X8.386Y-2.1475
X8.436Y-1.994
X8.439Y-2.969
X8.445Y-2.441
X8.486Y-1.994
X8.486Y-2.147
X8.536Y-1.994
X8.536Y-2.1475
X8.57Y-2.415
X8.586Y-1.994
X8.586Y-2.147
X8.62Y-3.169
X8.636Y-1.994
X8.636Y-2.1475
X8.686Y-1.994
X8.686Y-2.1475
X8.69Y-2.91
X8.847Y-3.148
T3
X8.8448Y-2.0313
X8.8665Y-1.9791
X8.8665Y-2.0835
X8.9187Y-1.9575
X8.9187Y-2.1052
X8.9709Y-1.9791
X8.9709Y-2.0835
X8.9925Y-2.0313
X8.291Y-3.334
X8.3402Y-3.334
X7.4275Y-2.0313
X7.4491Y-1.9791
X7.4491Y-2.0835
X7.5013Y-1.9575
X7.5013Y-2.1052
X7.5535Y-1.9791
X7.5535Y-2.0835
X7.5752Y-2.0313
X8.8448Y-3.4487
X8.8665Y-3.3965
X8.8665Y-3.5009
X8.9187Y-3.3748
X8.9187Y-3.5225
X8.9709Y-3.3965
X8.9709Y-3.5009
X8.9925Y-3.4487
X7.4275Y-3.4487
X7.4491Y-3.3965
X7.4491Y-3.5009
X7.5013Y-3.3748
X7.5013Y-3.5225
X7.5535Y-3.3965
X7.5535Y-3.5009
X7.5752Y-3.4487
X7.589Y-2.358
X7.589Y-2.4072
X7.986Y-3.331
X8.0352Y-3.331
T4
X7.449Y-2.575
X7.449Y-2.625
X7.449Y-2.675
X7.449Y-2.725
X7.449Y-2.775
T5
X7.47Y-3.0427
X7.47Y-3.1214
X7.47Y-3.2002
T6
X7.47Y-2.96
X7.47Y-3.2828
T7
X8.9187Y-2.0313
X7.5013Y-2.0313
X8.9187Y-3.4487
X7.5013Y-3.4487
T0
M30
